<svg xmlns="http://www.w3.org/2000/svg" width="512.001" height="512" viewBox="0 0 512.001 512">
  <g id="settings1233" transform="translate(-0.001)">
    <path id="路径_10877" data-name="路径 10877" d="M384,256a127.644,127.644,0,0,1-39.95,92.9C321.1,370.659,290.11,364,256,364s-65.1,6.659-88.05-15.1A128,128,0,1,1,384,256Z" fill="#eaf6ff"/>
    <path id="路径_10878" data-name="路径 10878" d="M506.748,220.278l-48.67-12.56a6.954,6.954,0,0,1-4.993-4.9,202.861,202.861,0,0,0-20.115-48.569,6.954,6.954,0,0,1,.062-7l25.532-43.295a7,7,0,0,0-1.08-8.506L416.552,54.515a7,7,0,0,0-8.506-1.08L364.751,78.967a6.954,6.954,0,0,1-7,.062,202.85,202.85,0,0,0-48.57-20.115,6.954,6.954,0,0,1-4.9-4.993L291.72,5.251A7,7,0,0,0,284.942,0H227.055a7,7,0,0,0-6.778,5.251l-12.56,48.67a6.954,6.954,0,0,1-4.9,4.993,202.86,202.86,0,0,0-48.569,20.115,6.957,6.957,0,0,1-7-.062L103.953,53.435a7,7,0,0,0-8.506,1.08L54.517,95.448a7,7,0,0,0-1.08,8.506l25.532,43.295a6.954,6.954,0,0,1,.062,7,202.86,202.86,0,0,0-20.115,48.569,6.955,6.955,0,0,1-4.993,4.9l-48.67,12.56A7,7,0,0,0,0,227.057v57.887a7,7,0,0,0,5.251,6.778l48.67,12.56a6.954,6.954,0,0,1,4.993,4.9,202.86,202.86,0,0,0,20.115,48.569,6.957,6.957,0,0,1-.062,7l-25.532,43.3a7,7,0,0,0,1.08,8.506l40.932,40.932a7,7,0,0,0,8.506,1.08l43.294-25.532a6.954,6.954,0,0,1,7-.062,202.848,202.848,0,0,0,48.57,20.115,6.954,6.954,0,0,1,4.9,4.993l12.56,48.67A7,7,0,0,0,227.058,512h57.887a7,7,0,0,0,6.778-5.251l12.56-48.67a6.954,6.954,0,0,1,4.9-4.993,202.885,202.885,0,0,0,48.57-20.115,6.957,6.957,0,0,1,7,.062l43.295,25.532a7,7,0,0,0,8.506-1.08l40.932-40.932a7,7,0,0,0,1.08-8.506l-25.532-43.295a6.954,6.954,0,0,1-.062-7,202.858,202.858,0,0,0,20.115-48.569,6.954,6.954,0,0,1,4.993-4.9l48.67-12.56A7,7,0,0,0,512,284.944V227.057a7.007,7.007,0,0,0-5.254-6.779ZM366.312,372.39A160.36,160.36,0,1,1,416.363,256,159.81,159.81,0,0,1,366.312,372.39Z" fill="#9d9d9d"/>
    <path id="路径_10879" data-name="路径 10879" d="M344.05,329.42V348.9a127.989,127.989,0,0,1-176.1,0V329.42a22.6,22.6,0,0,1,15.28-21.38l32.39-11.07,16.37-5.6h48.02l16.37,5.6,32.39,11.07a22.6,22.6,0,0,1,15.28,21.38Z" fill="#8ac9fe"/>
    <path id="路径_10880" data-name="路径 10880" d="M271.454,383.073a128.16,128.16,0,0,1-103.5-34.171V329.421a22.583,22.583,0,0,1,15.278-21.376l48.758-16.679h30.9l-48.758,16.679a22.583,22.583,0,0,0-15.278,21.376V348.9a127.534,127.534,0,0,0,72.6,34.171Z" fill="#60b7ff"/>
    <g id="组_8490" data-name="组 8490">
      <path id="路径_10881" data-name="路径 10881" d="M220.279,5.251l-12.542,48.6a7.108,7.108,0,0,1-5.017,5.1A202.3,202.3,0,0,0,166.9,72.329l11.252,6.64a6.954,6.954,0,0,0,7,.063,202.839,202.839,0,0,1,52.437-21.116L252.54,0H227.057a7,7,0,0,0-6.778,5.251Z" fill="#707070"/>
      <path id="路径_10882" data-name="路径 10882" d="M233.721,453.083a202.835,202.835,0,0,1-48.566-20.116,6.956,6.956,0,0,0-7,.063L166.9,439.67a202.233,202.233,0,0,0,35.96,13.424,6.855,6.855,0,0,1,4.84,4.918l12.579,48.737A7,7,0,0,0,227.059,512h25.483l-13.917-53.924a6.961,6.961,0,0,0-4.9-4.993Z" fill="#707070"/>
      <path id="路径_10883" data-name="路径 10883" d="M109.94,357.754a202.811,202.811,0,0,1-20.116-48.568,6.955,6.955,0,0,0-4.993-4.9L36.158,291.722a7,7,0,0,1-5.251-6.778V227.056a7,7,0,0,1,5.251-6.778l48.673-12.562a6.955,6.955,0,0,0,4.993-4.9,202.852,202.852,0,0,1,20.116-48.568,6.957,6.957,0,0,0-.062-7l-25.532-43.3a7,7,0,0,1,1.08-8.5l33.293-33.293-14.768-8.711a7,7,0,0,0-8.506,1.08L54.52,95.444a7,7,0,0,0-1.08,8.5l25.532,43.3a6.957,6.957,0,0,1,.062,7,202.811,202.811,0,0,0-20.116,48.568,6.955,6.955,0,0,1-4.993,4.9L5.252,220.278A7,7,0,0,0,0,227.056v57.888a7,7,0,0,0,5.251,6.778l48.673,12.562a6.955,6.955,0,0,1,4.993,4.9,202.851,202.851,0,0,0,20.116,48.568,6.957,6.957,0,0,1-.062,7L53.44,408.05a7,7,0,0,0,1.08,8.505l40.925,40.924a7,7,0,0,0,8.506,1.08l14.768-8.711L85.426,416.555a7,7,0,0,1-1.08-8.505l25.532-43.3a6.955,6.955,0,0,0,.062-7Z" fill="#707070"/>
    </g>
    <path id="路径_10884" data-name="路径 10884" d="M296.38,296.97a47.978,47.978,0,0,1-37.23,17.71h-6.29a48,48,0,0,1-37.24-17.71l16.37-5.6h48.02Z" fill="#60b7ff"/>
    <path id="路径_10885" data-name="路径 10885" d="M214.795,216.613v50a38.061,38.061,0,0,0,38.061,38.061h6.291a38.061,38.061,0,0,0,38.061-38.061v-50a11.656,11.656,0,0,0-11.656-11.656h-59.1A11.656,11.656,0,0,0,214.795,216.613Z" fill="#ffcebf"/>
    <path id="路径_10886" data-name="路径 10886" d="M266.3,304a37.273,37.273,0,0,1-7.16.68h-6.284a38.061,38.061,0,0,1-38.065-38.065V216.616a11.664,11.664,0,0,1,11.662-11.662h20.6A11.664,11.664,0,0,0,235.4,216.616v49.995A38.054,38.054,0,0,0,266.3,304Z" fill="#ffb09e"/>
    <path id="路径_10887" data-name="路径 10887" d="M214.795,229.639h16.521a22.9,22.9,0,0,0,16.641-7.17l11.3-11.962,7.342,12.805a12.588,12.588,0,0,0,10.922,6.327h19.682V203.922a28.256,28.256,0,0,0-28.256-28.256h-25.9a28.256,28.256,0,0,0-28.256,28.256v25.717Z" fill="#68748f"/>
    <path id="路径_10888" data-name="路径 10888" d="M243.052,175.666h20.6A28.257,28.257,0,0,0,235.4,203.924v25.342a22.361,22.361,0,0,1-4.079.371H214.8V203.924a28.255,28.255,0,0,1,28.257-28.258Z" fill="#5d6980"/>
  </g>
</svg>
