<svg id="error" xmlns="http://www.w3.org/2000/svg" width="69.373" height="61.934" viewBox="0 0 69.373 61.934">
  <path id="路径_2943" data-name="路径 2943" d="M68.139,52.582,40.922,5.445c-3.327-5.764-8.768-5.764-12.1,0L1.608,52.582C-1.721,58.351,1,63.056,7.654,63.056H62.092C68.746,63.056,71.467,58.351,68.139,52.582Zm-37-33.764a5.223,5.223,0,0,1,7.477-.022,5.539,5.539,0,0,1,1.459,3.923c0,1.351-2.03,11.286-2.707,18.514H32.473c-.6-7.228-2.8-17.163-2.8-18.514A5.536,5.536,0,0,1,31.135,18.818Zm7.407,34.367a5.229,5.229,0,0,1-7.336,0,4.877,4.877,0,0,1-1.535-3.633,5.186,5.186,0,0,1,8.871-3.665,5,5,0,0,1,1.535,3.665A4.867,4.867,0,0,1,38.542,53.186Z" transform="translate(-0.187 -1.122)" fill="#f53333"/>
</svg>
