<svg xmlns="http://www.w3.org/2000/svg" width="24.657" height="21.55" viewBox="0 0 24.657 21.55">
  <g id="组_8494" data-name="组 8494" transform="translate(-2122.496 -12090.225)">
    <g id="pawprint" transform="translate(2122.496 12090.225)">
      <path id="路径_10843" data-name="路径 10843" d="M77.844,184.714a6,6,0,0,0-10.11,0l-2.674,4.171a3.8,3.8,0,0,0,4.729,5.53l.05-.022a7.471,7.471,0,0,1,5.949.022,3.779,3.779,0,0,0,1.525.323,3.826,3.826,0,0,0,.851-.1,3.8,3.8,0,0,0,2.354-5.756Zm0,0" transform="translate(-61.355 -173.188)" fill="#fff"/>
      <path id="路径_10844" data-name="路径 10844" d="M4.425,105.653a2.915,2.915,0,0,0,1.7-1.8,3.765,3.765,0,0,0-.066-2.6,3.768,3.768,0,0,0-1.692-1.971,2.915,2.915,0,0,0-2.471-.2,3.337,3.337,0,0,0-1.634,4.4,3.521,3.521,0,0,0,3.166,2.354,2.76,2.76,0,0,0,1-.185Zm0,0" transform="translate(0 -94.132)" fill="#fff"/>
      <path id="路径_10845" data-name="路径 10845" d="M128.035,8.254a3.9,3.9,0,0,0,3.622-4.126,3.653,3.653,0,1,0-7.243,0A3.9,3.9,0,0,0,128.035,8.254Zm0,0" transform="translate(-118.422)" fill="#fff"/>
      <path id="路径_10846" data-name="路径 10846" d="M286.376,47.582h0a2.952,2.952,0,0,0,.933.151,3.754,3.754,0,0,0,3.417-2.689,4.047,4.047,0,0,0-.058-2.792,3.062,3.062,0,0,0-4.539-1.509,4.048,4.048,0,0,0-1.717,2.2,3.58,3.58,0,0,0,1.964,4.637Zm0,0" transform="translate(-270.508 -38.314)" fill="#fff"/>
      <path id="路径_10847" data-name="路径 10847" d="M382.088,171.6h0a3.549,3.549,0,0,0-4.19,5.66,2.832,2.832,0,0,0,1.7.549,3.662,3.662,0,0,0,2.892-1.532A3.339,3.339,0,0,0,382.088,171.6Zm0,0" transform="translate(-358.592 -162.816)" fill="#fff"/>
    </g>
  </g>
</svg>
