<svg xmlns="http://www.w3.org/2000/svg" xmlns:xlink="http://www.w3.org/1999/xlink" width="87.484" height="86.689" viewBox="0 0 87.484 86.689">
  <defs>
    <clipPath id="clip-path">
      <rect id="Background" width="40.056" height="40.056" fill="none"/>
    </clipPath>
  </defs>
  <g id="Group_9" data-name="Group 9" transform="translate(0.5 0.5)">
    <rect id="Rectangle_3" data-name="Rectangle 3" width="86.484" height="63.725" rx="10" fill="#ffeaec" stroke="#ffb7bd" stroke-miterlimit="10" stroke-width="1"/>
    <text id="Type_something" data-name="Type something" transform="translate(43.06 82.189)" fill="#595959" font-size="11" font-family="Poppins-Regular, Poppins"><tspan x="-31.983" y="0">Credit Card</tspan></text>
    <g id="credit-card_1_" data-name="credit-card (1)" transform="translate(23.032 11.835)">
      <rect id="Background-2" data-name="Background" width="40.056" height="40.056" fill="none"/>
      <g id="credit-card_1_2" data-name="credit-card (1)" clip-path="url(#clip-path)">
        <path id="Shape" d="M40.056,2.762V26.416a2.76,2.76,0,0,1-2.762,2.762H2.762A2.76,2.76,0,0,1,0,26.416V2.762A2.76,2.76,0,0,1,2.762,0H37.293a2.76,2.76,0,0,1,2.762,2.762Z" transform="translate(0 5.439)" fill="#fe4f60"/>
        <path id="Shape-2" data-name="Shape" d="M40.056,2.762V4.9a1.384,1.384,0,0,1-1.312,1.381c-14.5.717-25.829,9.4-30.568,22a1.384,1.384,0,0,1-1.295.9H2.762A2.76,2.76,0,0,1,0,26.425V2.762A2.76,2.76,0,0,1,2.762,0H37.293a2.76,2.76,0,0,1,2.762,2.762Z" transform="translate(0 5.439)" fill="#ff6d7a"/>
        <path id="Shape-3" data-name="Shape" d="M0,0H40.056V5.87H0Z" transform="translate(0 11.654)" fill="#42434d"/>
        <path id="Shape-4" data-name="Shape" d="M39.106,0c-.855.276-9.375-.147-18.241,5.853-.035.026.941.017-20.865.017V0Z" transform="translate(0 11.654)" fill="#4d4e59"/>
        <g id="Group" transform="translate(4.921 23.308)">
          <path id="Shape-5" data-name="Shape" d="M6.475,1.381H.691A.691.691,0,1,1,.691,0H6.475a.691.691,0,1,1,0,1.381Z" fill="#fff"/>
          <path id="Shape-6" data-name="Shape" d="M6.475,1.381H.691A.691.691,0,1,1,.691,0H6.475a.691.691,0,0,1,0,1.381Z" transform="translate(0 4.316)" fill="#fff"/>
        </g>
      </g>
    </g>
  </g>
</svg>
