<svg xmlns="http://www.w3.org/2000/svg" width="512" height="207.386" viewBox="0 0 512 207.386">
  <g id="instagram-stories_2_" data-name="instagram-stories (2)" transform="translate(0 -152.307)">
    <path id="路径_10889" data-name="路径 10889" d="M256,215.74a7.5,7.5,0,0,0-7.5,7.5v65.465a7.5,7.5,0,0,0,6.231,7.392c.538.092.974.167,8.2.167,3.5,0,8.59-.018,16.054-.059a7.5,7.5,0,0,0-.041-15H278.9c-5.331.03-11.057.051-15.4.055V223.24A7.5,7.5,0,0,0,256,215.74Z" fill="#5e5e5e"/>
    <path id="路径_10890" data-name="路径 10890" d="M315.986,288.76V223.24a7.5,7.5,0,0,0-15,0v65.52a7.5,7.5,0,0,0,15,0Z" fill="#5e5e5e"/>
    <path id="路径_10891" data-name="路径 10891" d="M438.972,231.039a7.5,7.5,0,0,0,0-15H411.617a7.5,7.5,0,0,0-7.5,7.5v64.922a7.5,7.5,0,0,0,7.5,7.5h27.355a7.5,7.5,0,0,0,0-15H419.117V263.5h17.838a7.5,7.5,0,0,0,0-15H419.117V231.039Z" fill="#5e5e5e"/>
    <path id="路径_10892" data-name="路径 10892" d="M361.648,296.26h.061a9,9,0,0,0,8.457-6.138l21.393-64.4A7.5,7.5,0,0,0,377.324,221l-15.8,47.563-16.584-47.779a7.5,7.5,0,0,0-14.171,4.918l22.419,64.589A8.987,8.987,0,0,0,361.648,296.26Z" fill="#5e5e5e"/>
    <path id="路径_10893" data-name="路径 10893" d="M424.339,168.339H215.919a7.5,7.5,0,0,0,0,15H424.338a72.661,72.661,0,1,1,0,145.322H177.594a103.574,103.574,0,1,0-18.574,15H424.339a87.661,87.661,0,1,0,0-175.322ZM15,256a88.693,88.693,0,1,1,88.693,88.693A88.793,88.793,0,0,1,15,256Z" fill="#5e5e5e"/>
    <path id="路径_10894" data-name="路径 10894" d="M150.606,243.841,86.865,211.97a15.711,15.711,0,0,0-22.736,14.051v63.741a15.711,15.711,0,0,0,22.737,14.052l8.35-4.175a7.5,7.5,0,0,0-6.708-13.416L80.159,290.4a.709.709,0,0,1-1.027-.635V226.022a.71.71,0,0,1,1.028-.635L143.9,257.258a.71.71,0,0,1,0,1.27l-27.012,13.506A7.5,7.5,0,0,0,123.6,285.45l27.012-13.507a15.707,15.707,0,0,0,0-28.1Z" fill="#5e5e5e"/>
  </g>
</svg>
